<svg version="1.1" width="102.3" height="110" viewBox="0 0 102.3 110" xmlns="http://www.w3.org/2000/svg" xmlns:xlink="http://www.w3.org/1999/xlink" overflow="hidden"><defs></defs><g><path d=" M 44.9 19.4 C 44.9 22.7 47.5 25.5 50.7 25.7 L 50.7 13.1 C 47.4 13.4 44.9 16.1 44.9 19.4 Z" fill="#FBC16C"/><path d=" M 51.2 13 C 51 13 50.8 13 50.7 13.1 L 50.7 25.8 C 50.9 25.8 51.1 25.9 51.2 25.9 C 54.7 25.9 57.6 23 57.6 19.5 C 57.6 15.9 54.8 13 51.2 13 Z" fill="#FF9F00"/><path d=" M 41.1 19.4 C 41.1 14 45.4 9.6 50.7 9.3 L 50.7 0 C 40.2 0.3 31.8 8.9 31.8 19.4 C 31.8 27.6 37 34.9 44.7 37.7 L 44.7 39.2 L 50.7 39.2 L 50.7 29.6 C 45.3 29.3 41.1 24.8 41.1 19.4 Z" fill="#3F4276"/><path d=" M 51.2 0 C 51 0 50.8 0 50.7 0 L 50.7 9.3 C 50.9 9.3 51.1 9.2 51.2 9.2 C 56.8 9.2 61.4 13.8 61.4 19.4 C 61.4 25 56.8 29.6 51.2 29.6 C 51 29.6 50.8 29.6 50.7 29.5 L 50.7 39.1 L 57.8 39.1 L 57.8 37.6 C 65.5 34.9 70.7 27.5 70.7 19.3 C 70.7 8.7 62 0 51.2 0 Z" fill="#3F2B3B"/><path d=" M 63.3 39.3 L 57.7 39.3 L 57.7 39.1 L 50.6 39.1 L 50.6 52.4 L 57.7 52.4 L 57.7 52.3 L 63.3 52.3 C 66.9 52.3 69.8 49.4 69.8 45.8 C 69.8 42.2 66.9 39.3 63.3 39.3 Z" fill="#FF9F00"/><path d=" M 44.7 39.1 L 44.7 39.3 L 39.5 39.3 C 35.9 39.3 33 42.2 33 45.8 C 33 49.4 35.9 52.3 39.5 52.3 L 44.7 52.3 L 44.7 52.4 L 50.7 52.4 L 50.7 39.1 L 44.7 39.1 Z" fill="#FBC16C"/><path d=" M 44.7 52.4 L 44.7 96.3 C 35.1 94.4 27 88.7 22.8 80.9 C 25.2 80.8 27.3 79.4 28.3 77.3 C 29.1 75.7 29.2 74 28.7 72.3 C 28.2 70.6 27 69.3 25.4 68.5 L 9 60.3 L 0.7 76.8 C -0.1 78.4 -0.2 80.1 0.3 81.8 C 0.8 83.5 2 84.8 3.6 85.6 C 5.8 86.7 8.4 86.4 10.3 85.1 C 17.2 100 33 109.8 50.7 110.1 L 50.7 52.4 L 44.7 52.4 Z" fill="#3F4276"/><path d=" M 101.6 76.8 L 93.3 60.3 L 76.8 68.6 C 73.6 70.2 72.3 74.1 73.9 77.4 C 75.1 79.7 77.5 81.1 80 81 C 75.7 88.9 67.5 94.7 57.7 96.5 L 57.7 52.5 L 50.6 52.5 L 50.6 110 C 50.8 110 51.1 110 51.3 110 C 69.1 110 85.2 100.2 92.3 85.2 C 94.1 86.3 96.6 86.4 98.6 85.5 C 101.9 83.9 103.2 80 101.6 76.8 Z" fill="#3F2B3B"/></g></svg>